<svg width="19" height="20" viewBox="0 0 19 20" fill="none" xmlns="http://www.w3.org/2000/svg">
<path d="M11.6737 9.99996L18.3028 3.38621C18.5931 3.09591 18.7562 2.70218 18.7562 2.29163C18.7562 1.88108 18.5931 1.48735 18.3028 1.19704C18.0125 0.906742 17.6188 0.743652 17.2082 0.743652C16.7977 0.743652 16.404 0.906742 16.1137 1.19704L9.49991 7.82621L2.88616 1.19704C2.59585 0.906742 2.20212 0.743652 1.79157 0.743652C1.38102 0.743652 0.987291 0.906742 0.696989 1.19704C0.406688 1.48735 0.243598 1.88108 0.243598 2.29163C0.243598 2.70218 0.406688 3.09591 0.696989 3.38621L7.32616 9.99996L0.696989 16.6137C0.552491 16.757 0.4378 16.9275 0.359532 17.1154C0.281264 17.3033 0.240967 17.5048 0.240967 17.7083C0.240967 17.9118 0.281264 18.1133 0.359532 18.3012C0.4378 18.489 0.552491 18.6596 0.696989 18.8029C0.840307 18.9474 1.01082 19.0621 1.19868 19.1403C1.38655 19.2186 1.58805 19.2589 1.79157 19.2589C1.99509 19.2589 2.1966 19.2186 2.38446 19.1403C2.57233 19.0621 2.74284 18.9474 2.88616 18.8029L9.49991 12.1737L16.1137 18.8029C16.257 18.9474 16.4275 19.0621 16.6153 19.1403C16.8032 19.2186 17.0047 19.2589 17.2082 19.2589C17.4118 19.2589 17.6133 19.2186 17.8011 19.1403C17.989 19.0621 18.1595 18.9474 18.3028 18.8029C18.4473 18.6596 18.562 18.489 18.6403 18.3012C18.7185 18.1133 18.7588 17.9118 18.7588 17.7083C18.7588 17.5048 18.7185 17.3033 18.6403 17.1154C18.562 16.9275 18.4473 16.757 18.3028 16.6137L11.6737 9.99996Z" fill="black"/>
</svg>
