<svg width="1926" height="193" viewBox="0 0 1926 193" fill="none" xmlns="http://www.w3.org/2000/svg">
<path d="M0.162689 177L32.2598 183.294C64.3569 190.063 128.551 201.938 192.745 158C256.939 114.063 321.134 11.9376 385.328 12.2938C449.522 11.9376 513.716 114.063 577.91 132.706C642.104 152.063 706.299 87.9376 770.493 94.7063C834.687 101 898.881 177 963.075 189.706C1027.27 201.938 1091.46 152.063 1155.66 139C1219.85 125.938 1284.05 152.063 1348.24 164.294C1412.43 177 1476.63 177 1540.82 139C1605.02 101 1669.21 25.0001 1733.41 6.00008C1797.6 -12.9999 1861.79 25.0001 1893.89 44.0001L1925.99 63.0001L1925.99 192.5H1893.89C1861.79 192.5 1797.6 192.5 1733.41 192.5C1669.21 192.5 1605.02 192.5 1540.82 192.5C1476.63 192.5 1412.43 192.5 1348.24 192.5C1284.05 192.5 1219.85 192.5 1155.66 192.5C1091.46 192.5 1027.27 192.5 963.075 192.5C898.881 192.5 834.687 192.5 770.493 192.5C706.299 192.5 642.104 192.5 577.91 192.5C513.716 192.5 449.522 192.5 385.328 192.5C321.133 192.5 256.939 192.5 192.745 192.5C128.551 192.5 64.3568 192.5 32.2597 192.5H0.162598L0.162689 177Z" fill="#FCB45D"/>
</svg>
