<svg width="1926" height="168" viewBox="0 0 1926 168" fill="none" xmlns="http://www.w3.org/2000/svg">
<path d="M0.162598 82.4L53.6577 61.1C107.153 39.8 214.143 -2.80004 321.133 4.25559C428.124 11.8437 535.114 67.7562 642.104 82.4C749.095 97.0437 856.085 67.7562 963.075 54.0443C1070.07 39.8 1177.06 39.8 1284.05 46.8556C1391.04 54.4437 1498.03 67.7562 1605.02 89.4556C1712.01 110.356 1819 139.644 1872.49 153.356L1925.99 167.6V0.5H1872.49C1819 0.5 1712.01 0.5 1605.02 0.5C1498.03 0.5 1391.04 0.5 1284.05 0.5C1177.06 0.5 1070.07 0.5 963.075 0.5C856.085 0.5 749.095 0.5 642.104 0.5C535.114 0.5 428.124 0.5 321.133 0.5C214.143 0.5 107.153 0.5 53.6577 0.5H0.162598V82.4Z" fill="#FCB45D"/>
</svg>
