<svg width="26" height="20" viewBox="0 0 26 20" fill="none" xmlns="http://www.w3.org/2000/svg">
<path d="M0.666992 1.77778C0.666992 1.41434 0.81137 1.06578 1.06836 0.808782C1.32536 0.551788 1.67392 0.40741 2.03736 0.40741H23.9633C24.3267 0.40741 24.6753 0.551788 24.9323 0.808782C25.1893 1.06578 25.3337 1.41434 25.3337 1.77778C25.3337 2.14123 25.1893 2.48978 24.9323 2.74678C24.6753 3.00377 24.3267 3.14815 23.9633 3.14815H2.03736C1.67392 3.14815 1.32536 3.00377 1.06836 2.74678C0.81137 2.48978 0.666992 2.14123 0.666992 1.77778ZM0.666992 18.2222C0.666992 17.8588 0.81137 17.5102 1.06836 17.2532C1.32536 16.9962 1.67392 16.8519 2.03736 16.8519H23.9633C24.3267 16.8519 24.6753 16.9962 24.9323 17.2532C25.1893 17.5102 25.3337 17.8588 25.3337 18.2222C25.3337 18.5857 25.1893 18.9342 24.9323 19.1912C24.6753 19.4482 24.3267 19.5926 23.9633 19.5926H2.03736C1.67392 19.5926 1.32536 19.4482 1.06836 19.1912C0.81137 18.9342 0.666992 18.5857 0.666992 18.2222ZM0.666992 10C0.666992 9.63656 0.81137 9.288 1.06836 9.03101C1.32536 8.77401 1.67392 8.62963 2.03736 8.62963H23.9633C24.3267 8.62963 24.6753 8.77401 24.9323 9.03101C25.1893 9.288 25.3337 9.63656 25.3337 10C25.3337 10.3634 25.1893 10.712 24.9323 10.969C24.6753 11.226 24.3267 11.3704 23.9633 11.3704H10.6186L6.99125 14.9991L3.36251 11.3704H2.03736C1.67392 11.3704 1.32536 11.226 1.06836 10.969C0.81137 10.712 0.666992 10.3634 0.666992 10Z" fill="#652300"/>
</svg>
