<svg width="530" height="376" viewBox="0 0 530 376" fill="none" xmlns="http://www.w3.org/2000/svg">
<g clip-path="url(#clip0_11_908)">
<path fill-rule="evenodd" clip-rule="evenodd" d="M265.729 192.755C317.98 191.015 359.202 149.505 359.791 98.1177V53.7031H417.275V102.762C416.11 182.59 346.735 245.294 265.742 247.034C183.297 246.459 113.332 183.166 112.469 102.762V14.8092C112.469 5.80857 118.278 0 126.977 0H359.791V53.7031H169.639V97.2412C170.215 149.204 212.314 192.167 265.729 192.742V192.755Z" fill="#FF771E"/>
<path d="M265.925 294.693V329.571H311.844V337.682H265.925V375.346H256.545V286.569H317.417V294.68H265.925V294.693Z" fill="#2E343E"/>
<path d="M318.294 341.999C318.294 322.219 332.75 308.129 352.282 308.129C371.814 308.129 386.152 322.206 386.152 341.999C386.152 361.793 371.827 375.987 352.282 375.987C332.737 375.987 318.294 361.78 318.294 341.999ZM377.02 341.999C377.02 326.405 366.489 316.004 352.295 316.004C338.1 316.004 327.438 326.405 327.438 341.999C327.438 357.593 338.087 368.007 352.295 368.007C366.502 368.007 377.02 357.606 377.02 341.999Z" fill="#2E343E"/>
<path d="M390.207 341.999C390.207 322.219 404.663 308.129 424.195 308.129C443.727 308.129 458.053 322.206 458.053 341.999C458.053 361.793 443.727 375.987 424.195 375.987C404.663 375.987 390.207 361.78 390.207 341.999ZM448.934 341.999C448.934 326.405 438.403 316.004 424.209 316.004C410.014 316.004 399.352 326.405 399.352 341.999C399.352 357.593 410.001 368.007 424.209 368.007C438.416 368.007 448.934 357.606 448.934 341.999Z" fill="#2E343E"/>
<path d="M529.718 281.245V375.359H521.096V362.172C515.641 371.173 506.379 376 495.35 376C476.329 376 462.121 362.172 462.121 342.012C462.121 321.852 476.329 308.142 495.35 308.142C505.999 308.142 515.131 312.708 520.717 321.329V281.245H529.718ZM520.835 341.999C520.835 326.405 510.186 316.004 496.109 316.004C482.033 316.004 471.253 326.405 471.253 341.999C471.253 357.593 481.902 368.007 496.109 368.007C510.317 368.007 520.835 357.606 520.835 341.999Z" fill="#2E343E"/>
<path d="M0 289.617H25.3144C50.7857 289.617 71.0372 305.277 71.0372 331.703C71.0372 360.498 53.6377 375.215 25.3144 375.215H0V289.631V289.617ZM12.1797 364.448H25.0004C46.0368 364.448 57.7455 354.323 57.7455 332.174C57.7455 312.237 44.1399 300.371 26.4264 300.371H12.0227V364.448H12.1797Z" fill="#2E343E"/>
<path d="M87.1678 312.708H98.7195V375.359H87.1678V312.708Z" fill="#2E343E"/>
<path d="M120.24 289.617H145.554C171.026 289.617 191.277 305.277 191.277 331.703C191.277 360.498 173.878 375.215 145.554 375.215H120.24V289.631V289.617ZM132.577 364.448H145.397C166.434 364.448 178.142 354.323 178.142 332.174C178.142 312.237 164.537 300.371 146.823 300.371H132.433V364.448H132.59H132.577Z" fill="#2E343E"/>
<path d="M207.565 312.708H219.116V375.359H207.565V312.708Z" fill="#2E343E"/>
<path d="M213.255 298.631C216.839 298.631 219.744 295.726 219.744 292.142C219.744 288.558 216.839 285.653 213.255 285.653C209.672 285.653 206.767 288.558 206.767 292.142C206.767 295.726 209.672 298.631 213.255 298.631Z" fill="#2E343E"/>
<path d="M93.0286 298.631C96.6123 298.631 99.5175 295.726 99.5175 292.142C99.5175 288.558 96.6123 285.653 93.0286 285.653C89.4449 285.653 86.5398 288.558 86.5398 292.142C86.5398 295.726 89.4449 298.631 93.0286 298.631Z" fill="#2E343E"/>
</g>
<defs>
<clipPath id="clip0_11_908">
<rect width="529.718" height="376" fill="white"/>
</clipPath>
</defs>
</svg>
