<svg width="481" height="376" viewBox="0 0 481 376" fill="none" xmlns="http://www.w3.org/2000/svg">
<g clip-path="url(#clip0_11_870)">
<path d="M480.004 267.857C479.795 270.278 479.263 272.264 478.794 274.249C472.962 298.691 461.462 320.118 444.255 338.411C428.955 354.679 410.328 365.506 388.799 371.354C381.344 373.379 373.753 374.646 366.037 375.212C361.393 375.551 356.749 375.857 352.1 375.67C322.839 374.505 295.993 366.088 272.332 348.542C259.248 338.841 248.733 326.866 241.589 312.103C241.272 311.452 240.978 310.796 240.673 310.14C240.542 309.851 240.441 309.444 240.118 309.427C239.694 309.399 239.586 309.863 239.445 310.174C238.071 313.223 236.526 316.192 234.807 319.06C226.803 332.392 216.055 343.106 203.255 351.805C187.535 362.491 170.238 369.38 151.605 373.006C144.557 374.375 137.447 375.127 130.269 375.523C124.245 375.857 118.249 375.682 112.287 375.099C86.9121 372.621 64.1447 363.645 44.8051 346.862C23.6159 328.478 9.85367 305.354 2.38144 278.407C1.77054 276.195 1.26712 273.944 0.758031 271.704C0.475206 270.476 0.282886 269.232 6.10352e-05 267.756C2.72083 270.109 5.24363 272.349 7.82299 274.515C14.5429 280.16 21.7719 284.991 30.1152 287.938C42.4747 292.305 54.4381 290.908 66.1188 285.41C75.1239 281.173 82.9016 275.143 90.5096 268.859C100.821 260.334 110.788 251.391 121.83 243.778C130.326 237.912 138.991 232.386 148.726 228.715C156.939 225.62 165.441 224.455 174.135 225.14C184.877 225.982 194.663 229.761 203.77 235.446C214.189 241.951 223.726 249.644 233.359 257.201C234.462 258.066 235.553 258.949 236.69 259.763C239.332 261.664 240.848 261.72 243.444 259.763C247.228 256.901 250.922 253.92 254.667 251.001C263.265 244.309 271.908 237.663 281.541 232.487C288.447 228.777 295.795 226.311 303.584 225.389C315.123 224.02 326.142 225.999 336.674 230.887C345.827 235.135 354.119 240.752 362.27 246.617C371.343 253.151 379.664 260.612 388.262 267.733C395.994 274.142 403.823 280.415 412.913 284.884C420.826 288.775 429.119 290.998 438.005 290.444C445.008 290.008 451.524 287.825 457.701 284.555C464.788 280.805 470.994 275.844 476.927 270.522C477.855 269.69 478.805 268.893 480.01 267.852L480.004 267.857Z" fill="#FF624E"/>
<path d="M119.85 127.328C119.912 117.157 122.084 107.371 125.291 97.7837C128.861 87.1099 133.329 76.8547 140.145 67.7986C146.413 59.4779 154.179 52.9899 163.97 49.1605C168.841 47.2542 173.915 46.5415 179.119 47.3221C186.455 48.4195 190.861 52.8089 192.881 59.8003C193.028 60.3038 192.966 61.0165 193.611 61.1183C194.289 61.2258 194.425 60.4848 194.663 60.0436C196.88 55.9483 199.98 52.939 204.726 52.1132C211.089 51.0045 216.989 51.8473 221.763 56.6836C224.15 59.0989 224.834 61.9498 223.477 65.1401C219.738 73.9529 215.75 82.6639 212.271 91.5842C209.041 99.8653 205.795 108.146 203.928 116.886C203.283 119.906 203.046 122.944 203.215 126.021C203.34 128.238 204.539 128.985 206.603 128.142C208.487 127.373 209.913 125.959 211.406 124.646C217.583 119.222 221.52 112.451 224.116 104.673C229.218 89.3782 234.965 74.3206 241.679 59.642C244.129 54.2853 248.462 51.9831 254.067 51.7229C260.04 51.4401 265.182 53.2954 269.062 58.0525C269.707 58.8444 270.245 58.3749 270.771 57.8998C273.124 55.7729 275.647 53.8723 278.266 52.0905C284.024 48.1706 290.41 46.5359 297.288 47.1411C303.132 47.6559 307.685 50.5916 310.921 55.4618C313.89 59.9418 315.135 64.993 315.553 70.2875C316.6 83.3936 313.183 95.6795 308.641 107.75C304.913 117.661 300.02 126.949 293.629 135.416C293.351 135.784 292.791 136.203 293.227 136.7C293.646 137.176 294.16 136.746 294.573 136.508C305.258 130.371 313.144 122.01 317.001 109.956C322.415 93.0492 328.75 76.4757 336.018 60.2642C338.637 54.4267 343.095 51.853 349.238 51.7059C354.973 51.5702 359.883 53.4198 363.605 57.9337C364.363 58.8501 364.912 58.3806 365.511 57.8319C368.085 55.4731 370.879 53.4029 373.815 51.5192C379.426 47.9161 385.626 46.4906 392.187 47.1581C398.443 47.7973 403.127 51.1572 406.272 56.5875C408.84 61.0165 409.943 65.8641 410.26 70.9323C411.131 84.8416 407.279 97.7894 402.222 110.494C398.743 119.227 394.269 127.412 388.635 134.953C388.471 135.167 388.313 135.388 388.166 135.614C387.951 135.942 387.555 136.287 387.883 136.695C388.205 137.096 388.635 136.836 388.986 136.632C400.157 130.15 409.049 121.779 412.692 108.825C416.968 93.6205 422.597 78.9193 429.696 64.795C430.567 63.0585 431.545 61.3785 432.45 59.6589C435.052 54.6982 439.255 52.1697 444.736 51.7398C449.414 51.3722 453.838 52.198 457.667 55.1451C461.1 57.7923 462.854 61.2201 460.614 66.2261C456.813 74.7165 453.08 83.2409 449.686 91.9066C446.575 99.854 443.469 107.796 441.625 116.162C440.986 119.075 440.533 122.01 440.641 125.014C440.663 125.698 440.748 126.366 440.952 127.011C441.348 128.278 442.168 128.736 443.458 128.368C444.781 127.989 445.907 127.231 446.959 126.36C453.159 121.19 458.187 114.991 462.792 108.412C463.335 107.632 463.861 106.84 464.443 106.093C466.384 103.593 469.472 103.039 472.187 104.673C474.569 106.11 475.349 108.752 473.873 111.093C465.75 123.973 457.09 136.435 445.551 146.577C441.133 150.463 436.568 154.162 430.985 156.334C427.258 157.788 423.411 158.467 419.44 157.991C413.156 157.245 409.723 153.308 408.093 147.499C407.392 145.004 407.171 142.447 407.205 139.862C407.211 139.234 407.262 138.55 406.544 138.216C405.848 137.894 405.458 138.471 405.022 138.822C395.875 146.096 385.784 151.634 374.664 155.225C367.106 157.669 359.312 158.382 351.404 158.122C349.419 158.054 347.445 158.042 345.487 157.607C341.483 156.724 338.366 154.626 336.194 151.141C335.866 150.621 335.622 149.908 334.842 149.982C333.959 150.061 333.925 150.881 333.75 151.503C329.672 165.673 325.463 179.814 322.262 194.221C322.019 195.319 321.792 196.427 321.6 197.536C320.87 201.733 318.619 203.922 314.461 204.454C306.904 205.421 297.978 199.838 295.541 192.7C294.2 188.78 294.964 184.979 295.869 181.138C298.708 169.101 302.108 157.222 305.649 145.383C305.739 145.078 305.835 144.778 305.926 144.478C306.079 143.975 306.107 143.494 305.637 143.126C305.123 142.719 304.687 143.041 304.28 143.313C301.276 145.332 298.182 147.193 294.975 148.879C287.129 152.997 278.984 156.283 270.149 157.471C263.694 158.336 257.189 158.67 250.73 157.55C246.753 156.86 243.687 154.631 241.544 151.175C241.204 150.627 240.967 149.835 240.079 150.004C239.298 150.152 239.258 150.909 239.089 151.486C234.999 165.746 230.757 179.967 227.533 194.459C227.289 195.556 227.097 196.671 226.893 197.779C226.141 201.773 223.839 203.945 219.811 204.46C211.892 205.472 202.831 199.544 200.664 191.936C199.646 188.361 200.336 184.877 201.151 181.387C203.826 169.961 207.045 158.687 210.365 147.436C210.444 147.176 210.495 146.91 210.597 146.656C210.806 146.141 210.801 145.677 210.32 145.321C209.737 144.885 209.29 145.253 208.889 145.626C206.688 147.646 204.392 149.546 202.016 151.351C198.458 154.055 194.634 156.227 190.268 157.352C187.077 158.178 183.853 158.421 180.612 157.776C175.527 156.764 172.574 153.41 170.922 148.698C169.859 145.66 168.196 145.31 165.871 147.589C160.758 152.606 154.824 156.181 147.736 157.573C135.807 159.92 126.485 154.592 122.31 143.137C120.444 138.018 119.872 132.713 119.878 127.305L119.85 127.328ZM379.313 72.8159C379.296 71.3226 379.381 69.8293 378.929 68.3756C378.38 66.6221 377.48 66.2035 375.88 67.0803C375.133 67.4875 374.432 68.0023 373.775 68.5453C370.336 71.4131 367.689 74.9654 365.229 78.6591C356.987 91.0298 351.308 104.549 347.586 118.899C346.16 124.386 344.741 129.913 345.408 135.682C345.55 136.898 345.651 138.284 346.856 138.867C348.016 139.432 348.938 138.363 349.899 137.837C350.097 137.73 350.261 137.566 350.437 137.424C352.745 135.569 354.696 133.369 356.404 130.97C365.472 118.277 372.045 104.379 376.276 89.3838C377.803 83.9649 379.308 78.5233 379.313 72.8159ZM284.804 72.2899C284.731 71.5093 284.652 70.5194 284.544 69.5352C284.505 69.1788 284.392 68.8281 284.29 68.4831C283.701 66.5372 282.836 66.1639 281.088 67.1594C280.387 67.5611 279.719 68.0419 279.097 68.5623C276.054 71.1077 273.622 74.2074 271.404 77.4543C261.85 91.4258 255.634 106.834 251.861 123.272C250.945 127.271 250.311 131.327 250.718 135.456C250.849 136.751 250.922 138.273 252.246 138.878C253.445 139.427 254.457 138.392 255.374 137.702C258.259 135.529 260.549 132.78 262.586 129.839C271.336 117.169 277.768 103.401 281.863 88.5523C283.317 83.2861 284.561 77.9803 284.804 72.2899ZM151.373 130.122C151.373 130.529 151.39 130.936 151.373 131.344C151.294 133.159 151.464 134.958 151.99 136.7C152.573 138.629 153.489 138.98 155.226 137.99C156.136 137.47 156.923 136.791 157.663 136.061C161.193 132.611 163.92 128.566 166.244 124.262C173.909 110.053 179.588 95.1478 181.658 79.0268C182.088 75.6668 182.252 72.2842 181.426 68.9356C180.668 65.8698 179.373 65.3946 176.884 67.3574C174.226 69.456 172.172 72.0976 170.323 74.8975C164.197 84.1629 159.87 94.2823 156.295 104.736C153.483 112.954 151.475 121.366 151.368 130.128L151.373 130.122Z" fill="#FF624E"/>
<path d="M77.2904 4.42337C91.0922 4.4064 102.796 6.40314 113.843 11.5449C121.654 15.182 128.289 20.2842 133.063 27.5754C135.688 31.5802 137.136 35.9923 137.555 40.7607C138.72 54.0478 134.019 65.2872 125.461 75.1352C118.187 83.5068 109.119 89.4405 99.1471 94.1014C94.6445 96.2113 90.0231 98.0214 85.2887 99.5373C84.4289 99.8145 83.7275 100.097 83.7897 101.257C84.6382 117.497 87.2911 133.29 95.3912 147.697C99.8259 155.576 105.675 162.104 113.978 166.109C117.672 167.89 121.575 168.886 125.676 169.197C134.715 169.881 142.86 167.155 150.61 162.85C152.143 162.002 153.687 161.521 155.395 162.025C159.451 163.218 160.678 168.196 157.533 171.103C152.878 175.408 147.776 179.164 142.385 182.507C135.156 186.987 127.503 190.511 119.098 192.128C103.734 195.087 90.1646 191.506 78.7045 180.697C70.1689 172.642 64.9309 162.562 61.2373 151.594C58.6353 143.873 56.9666 135.942 56.0616 127.854C55.9824 127.135 55.8862 126.423 55.807 125.704C55.7391 125.048 55.6204 124.358 54.8341 124.284C54.0931 124.217 53.8895 124.89 53.7367 125.455C52.6281 129.641 51.4911 133.816 50.4616 138.024C49.1154 143.539 47.6051 149.015 46.5191 154.598C45.8855 157.861 43.3741 160.033 39.8783 160.492C32.0215 161.515 25.6013 158.682 20.4483 152.872C17.4617 149.501 16.8394 145.344 17.4164 141.033C19.9109 122.457 25.8502 104.792 31.8235 87.1439C37.2707 71.0569 43.3854 55.2187 50.4956 39.7821C52.2887 35.8848 55.2923 33.8541 59.5516 33.4864C62.8833 33.1979 66.2093 32.8359 69.5466 33.0056C72.8331 33.1753 76.1251 33.4016 79.3154 34.284C82.9356 35.2795 84.6438 38.7357 83.1166 42.1352C76.7474 56.316 71.2606 70.8419 66.0227 85.4639C65.9152 85.7637 65.7794 86.0522 65.7059 86.3577C65.5928 86.8385 65.474 87.3419 65.9208 87.7435C66.4016 88.1734 66.8655 87.8906 67.301 87.6756C80.7126 81.1989 91.4995 71.9562 98.0384 58.2958C101.472 51.1177 102.484 43.5267 101.308 35.7207C100.041 27.3209 94.8142 22.3431 86.7141 20.584C75.5595 18.1573 64.9932 19.9504 55.281 26.0425C40.6306 35.2399 30.9524 48.165 26.4159 64.8913C25.822 67.0747 25.4882 69.3316 25.5278 71.5773C25.59 75.1804 23.1747 77.3921 19.8374 78.0652C17.1053 78.6139 14.492 78.2123 12.0654 77.0188C6.17695 74.1227 2.76043 69.4052 1.7762 62.8549C0.678837 55.5298 3.2582 49.1436 6.703 43.0176C13.1627 31.5236 22.5695 22.9597 33.8711 16.3755C42.8423 11.1546 52.3622 7.34778 62.657 5.66214C68.0533 4.77973 73.4892 4.27065 77.2734 4.41771L77.2904 4.42337Z" fill="#FF624E"/>
<path d="M478.63 20.9291C478.636 32.4683 469.127 42.0674 457.582 41.9486C446.263 41.8298 436.676 33.2998 436.653 21.0026C436.625 9.21449 445.477 0.0283465 457.656 6.39926e-05C469.63 -0.0282185 478.381 9.32197 478.63 20.9291Z" fill="#FF624E"/>
</g>
<defs>
<clipPath id="clip0_11_870">
<rect width="479.999" height="375.727" fill="white" transform="translate(0.00561523)"/>
</clipPath>
</defs>
</svg>
