<svg width="1926" height="102" viewBox="0 0 1926 102" fill="none" xmlns="http://www.w3.org/2000/svg">
<path d="M0.162598 1.54869L53.6577 19.4878C107.153 37.1581 214.143 73.4393 321.133 62.4878C428.124 51.9393 535.114 -5.84193 642.104 1.54869C749.095 8.93932 856.085 80.1581 963.075 83.9878C1070.07 87.5487 1177.06 23.0487 1284.05 19.4878C1391.04 15.6581 1498.03 73.4393 1605.02 91.1096C1712.01 109.049 1819 87.5487 1872.49 76.7987L1925.99 66.0487V101.5H1872.49C1819 101.5 1712.01 101.5 1605.02 101.5C1498.03 101.5 1391.04 101.5 1284.05 101.5C1177.06 101.5 1070.07 101.5 963.075 101.5C856.085 101.5 749.095 101.5 642.104 101.5C535.114 101.5 428.124 101.5 321.133 101.5C214.143 101.5 107.153 101.5 53.6577 101.5H0.162598V1.54869Z" fill="#652300"/>
</svg>
