<svg width="1920" height="204" viewBox="0 0 1920 204" fill="none" xmlns="http://www.w3.org/2000/svg">
<path d="M-2.9126 184.301L42.9595 174.751C88.8316 164.48 180.308 146.461 272.587 107.36C363.93 68.9804 455.808 11.3203 546.75 1.77029C639.029 -8.50042 731.308 31.1409 822.25 59.4304C914.128 88.801 1005.47 106.82 1097.75 97.8104C1189.23 88.801 1280.97 49.1597 1373.25 40.1503C1464.33 31.1409 1556.47 49.1597 1647.41 59.4304C1739.56 68.9804 1830.63 68.9804 1877.44 68.9804H1922.91V203.5H1877.04C1831.17 203.5 1739.69 203.5 1647.41 203.5C1556.07 203.5 1464.19 203.5 1373.25 203.5C1280.97 203.5 1188.69 203.5 1097.75 203.5C1005.87 203.5 914.529 203.5 822.25 203.5C730.773 203.5 639.029 203.5 546.75 203.5C455.675 203.5 363.529 203.5 272.587 203.5C180.442 203.5 89.3665 203.5 42.5583 203.5H-2.9126V184.301Z" fill="#F1F1F1"/>
</svg>
