<svg width="927" height="276" viewBox="0 0 927 276" fill="none" xmlns="http://www.w3.org/2000/svg">
<path d="M0 167.81L15.4428 173.783C30.8857 180.207 61.7714 191.477 92.657 149.778C123.543 108.08 154.428 11.1599 185.314 11.498C216.2 11.1599 247.085 108.08 277.971 125.774C308.857 144.143 339.742 83.2866 370.628 89.7104C401.514 95.6834 432.4 167.81 463.285 179.869C494.171 191.477 525.057 144.143 555.942 131.747C586.828 119.35 617.714 144.143 648.599 155.751C679.485 167.81 710.371 167.81 741.256 131.747C772.142 95.6834 803.028 23.5567 833.913 5.52505C864.799 -12.5066 895.685 23.5567 911.128 41.5884L926.57 59.62V276H911.128C895.685 276 864.799 276 833.913 276C803.028 276 772.142 276 741.256 276C710.371 276 679.485 276 648.599 276C617.714 276 586.828 276 555.942 276C525.057 276 494.171 276 463.285 276C432.4 276 401.514 276 370.628 276C339.742 276 308.857 276 277.971 276C247.085 276 216.2 276 185.314 276C154.428 276 123.543 276 92.657 276C61.7714 276 30.8857 276 15.4428 276H0V167.81Z" fill="#FCB45D"/>
</svg>
