<svg width="354" height="357" viewBox="0 0 354 357" fill="none" xmlns="http://www.w3.org/2000/svg">
<g clip-path="url(#clip0_17_53)">
<path fill-rule="evenodd" clip-rule="evenodd" d="M261.576 213.168C257.244 210.794 235.831 199.254 231.832 197.63C227.832 196.005 224.875 195.172 221.75 199.463C218.626 203.795 209.752 213.46 207.086 216.293C204.378 219.167 201.796 219.417 197.421 217.043C193.089 214.668 178.967 209.419 162.595 193.714C149.847 181.466 141.515 166.636 139.099 162.095C136.683 157.554 139.099 155.263 141.39 153.138C143.473 151.222 146.014 148.097 148.347 145.598C150.639 143.098 151.472 141.265 153.055 138.391C154.638 135.475 154.013 132.892 152.971 130.601C151.93 128.351 143.89 106.188 140.557 97.1902C137.183 88.1918 133.433 89.5249 130.851 89.3999C128.268 89.3166 125.31 88.8167 122.352 88.7334C119.394 88.6084 114.52 89.5666 110.313 93.8158C106.063 98.1067 94.2324 108.396 93.3992 130.226C92.566 152.055 107.688 173.718 109.771 176.759C111.896 179.8 138.599 227.083 183.007 246.537C227.416 265.992 227.666 260.076 235.789 259.618C243.954 259.202 262.409 249.87 266.534 239.664C270.616 229.457 270.949 220.584 269.908 218.667C268.866 216.793 265.95 215.543 261.618 213.168H261.576ZM180.133 318.315C150.763 318.315 123.435 309.525 100.606 294.403L45.0332 312.192L63.1132 258.493C45.7831 234.664 35.5767 205.378 35.5767 173.718C35.535 93.9408 100.398 29.0779 180.133 29.0779C259.868 29.0779 324.731 93.9408 324.731 173.676C324.731 253.411 259.868 318.274 180.133 318.274V318.315ZM180.133 0C84.1926 0 6.41547 77.7771 6.41547 173.718C6.41547 206.545 15.5388 237.247 31.3275 263.409L0 356.6L96.1487 325.814C121.061 339.562 149.639 347.435 180.091 347.435C276.032 347.435 353.809 269.658 353.809 173.718C353.809 77.7771 276.073 0 180.133 0Z" fill="#30BF39"/>
</g>
<defs>
<clipPath id="clip0_17_53">
<rect width="353.851" height="356.6" fill="white"/>
</clipPath>
</defs>
</svg>
